<svg xmlns="http://www.w3.org/2000/svg" xmlns:xlink="http://www.w3.org/1999/xlink" version="1.1" x="0px" y="0px" viewBox="0 0 100 125" enable-background="new 0 0 100 100" xml:space="preserve"><g><path d="M83.704,22.106H24.849c-3.91,0-7.091-3.181-7.091-7.091c0-3.909,3.181-7.09,7.087-7.09l54.7,0.164c0.001,0,0.003,0,0.004,0   c0.805,0,1.46-0.652,1.462-1.457c0.002-0.808-0.65-1.464-1.458-1.467L24.849,5c-5.522,0-10.015,4.493-10.015,10.014V75.06h0.098   c0.652,4.896,4.845,8.689,9.917,8.689h4.563v10.763c0,0.174,0.093,0.335,0.244,0.423C29.732,94.978,29.815,95,29.899,95   c0.085,0,0.169-0.022,0.245-0.066l6.151-3.578l6.15,3.578c0.151,0.088,0.337,0.088,0.488,0.001   c0.151-0.088,0.244-0.248,0.244-0.423V83.75h40.526c0.808,0,1.462-0.655,1.462-1.462v-58.72   C85.166,22.761,84.512,22.106,83.704,22.106z M25.823,72.224c4.635,0.447,8.354,4.034,9.021,8.602h-9.021V72.224z M36.814,80.826   c-0.688-5.644-5.281-10.09-10.991-10.551V47.807c0-0.539-0.436-0.975-0.975-0.975s-0.975,0.436-0.975,0.975v22.348   c-2.817-0.364-5.148-2.278-6.116-4.858V33.621c1.542,1.722,3.692,2.889,6.116,3.137v4.714c0,0.539,0.436,0.975,0.975,0.975   s0.975-0.436,0.975-0.975v-4.776c6.082-0.49,10.895-5.502,11.074-11.665h34.842c0.667,5.483,5.021,9.837,10.503,10.505v34.789   c-5.482,0.668-9.835,5.021-10.503,10.503H36.814z M34.948,25.03c-0.176,5.089-4.118,9.235-9.124,9.716V25.03H34.948z M73.709,25.03   h8.534v8.535C77.837,32.921,74.352,29.436,73.709,25.03z M23.874,24.981v9.807c-2.817-0.364-5.148-2.278-6.116-4.858v-7.85   C19.357,23.684,21.495,24.75,23.874,24.981z M17.758,73.735v-4.747c1.542,1.722,3.692,2.889,6.116,3.137v8.626   C20.425,80.273,17.758,77.313,17.758,73.735z M73.709,80.826c0.644-4.405,4.128-7.889,8.533-8.533v8.533H73.709z"/><path d="M24.851,11.189c0,0-0.001,0-0.002,0c-0.537,0-0.974,0.435-0.975,0.973c-0.001,0.539,0.435,0.976,0.973,0.977l56.085,0.109   c0,0,0.001,0,0.002,0c0.537,0,0.974-0.435,0.975-0.973c0.001-0.539-0.435-0.976-0.973-0.977L24.851,11.189z"/><path d="M24.849,16.891c-0.538,0-0.974,0.436-0.975,0.974c0,0.539,0.435,0.975,0.974,0.976l57.471,0.055c0,0,0,0,0.001,0   c0.538,0,0.974-0.436,0.975-0.974c0-0.539-0.435-0.975-0.974-0.976L24.849,16.891C24.849,16.891,24.849,16.891,24.849,16.891z"/><path d="M54.277,40.744c1.829,0,3.587,0.394,5.223,1.173c0.484,0.229,1.067,0.026,1.299-0.462c0.231-0.486,0.024-1.068-0.462-1.299   c-1.899-0.903-3.938-1.361-6.06-1.361c-7.793,0-14.133,6.34-14.133,14.133c0,2.832,0.835,5.565,2.414,7.902   c0.188,0.279,0.495,0.429,0.809,0.429c0.188,0,0.377-0.054,0.545-0.168c0.446-0.301,0.563-0.907,0.262-1.353   c-1.361-2.014-2.08-4.37-2.08-6.811C42.093,46.21,47.558,40.744,54.277,40.744z"/><path d="M65.015,43.739c-0.35-0.41-0.966-0.456-1.374-0.107c-0.409,0.35-0.456,0.966-0.106,1.374   c1.887,2.203,2.926,5.015,2.926,7.921c0,6.718-5.466,12.184-12.184,12.184c-1.358,0-2.692-0.222-3.965-0.66   c-0.51-0.176-1.064,0.096-1.239,0.604c-0.175,0.509,0.096,1.063,0.605,1.238c1.478,0.508,3.025,0.766,4.599,0.766   c7.793,0,14.133-6.34,14.133-14.133C68.41,49.557,67.204,46.293,65.015,43.739z"/></g><text x="0" y="115" fill="#000000" font-size="5px" font-weight="bold" font-family="'Helvetica Neue', Helvetica, Arial-Unicode, Arial, Sans-serif">Created by Maxim Kulikov</text><text x="0" y="120" fill="#000000" font-size="5px" font-weight="bold" font-family="'Helvetica Neue', Helvetica, Arial-Unicode, Arial, Sans-serif">from the Noun Project</text></svg>